RBDS023runT45_grf
version=1
nRows=30
nColumns=19
inDegrees=no
endheader
time	ground_force_r_vx	ground_force_r_vy	ground_force_r_vz	ground_force_r_px	ground_force_r_py	ground_force_r_pz	ground_force_r_mx	ground_force_r_my	ground_force_r_mz	ground_force_l_vx	ground_force_l_vy	ground_force_l_vz	ground_force_l_px	ground_force_l_py	ground_force_l_pz	ground_force_l_mx	ground_force_l_my	ground_force_l_mz
     22.49800000	      0.00000000	      0.00000000	      0.00000000	      0.00000000	      0.00000000	      0.00000000	      0.00000000	      0.00000000	      0.00000000	    225.99624689	   1477.60986070	      7.55848918	      2.15425087	      0.00000000	      0.99471234	     -0.00000000	      3.17925356	     -0.00000000
     22.49900000	      0.00000000	      0.00000000	      0.00000000	      0.00000000	      0.00000000	      0.00000000	      0.00000000	      0.00000000	      0.00000000	    231.37682279	   1458.34795709	      5.95248973	      2.14997613	      0.00000000	      0.99481841	     -0.00000000	      3.09571133	     -0.00000000
     22.50000000	      0.00000000	      0.00000000	      0.00000000	      0.00000000	      0.00000000	      0.00000000	      0.00000000	      0.00000000	      0.00000000	    236.75739868	   1439.08605348	      4.34649027	      2.14570139	      0.00000000	      0.99492448	     -0.00000000	      3.01216909	     -0.00000000
     22.50100000	      0.00000000	      0.00000000	      0.00000000	      0.00000000	      0.00000000	      0.00000000	      0.00000000	      0.00000000	      0.00000000	    241.31144971	   1418.49676045	      2.83612526	      2.14145958	      0.00000000	      0.99503936	     -0.00000000	      2.93085068	     -0.00000000
     22.50200000	      0.00000000	      0.00000000	      0.00000000	      0.00000000	      0.00000000	      0.00000000	      0.00000000	      0.00000000	      0.00000000	    245.86550074	   1397.90746742	      1.32576025	      2.13721777	      0.00000000	      0.99515423	     -0.00000000	      2.84953227	     -0.00000000
     22.50300000	      0.00000000	      0.00000000	      0.00000000	      0.00000000	      0.00000000	      0.00000000	      0.00000000	      0.00000000	      0.00000000	    250.41955177	   1377.31817439	     -0.18460476	      2.13297596	      0.00000000	      0.99526911	     -0.00000000	      2.76821386	     -0.00000000
     22.50400000	      0.00000000	      0.00000000	      0.00000000	      0.00000000	      0.00000000	      0.00000000	      0.00000000	      0.00000000	      0.00000000	    254.38226520	   1355.93732097	     -1.61665017	      2.12876758	      0.00000000	      0.99538921	     -0.00000000	      2.69022536	     -0.00000000
     22.50500000	      0.00000000	      0.00000000	      0.00000000	      0.00000000	      0.00000000	      0.00000000	      0.00000000	      0.00000000	      0.00000000	    258.04930983	   1334.16068736	     -3.00953579	      2.12457592	      0.00000000	      0.99551193	     -0.00000000	      2.61390181	     -0.00000000
     22.50600000	      0.00000000	      0.00000000	      0.00000000	      0.00000000	      0.00000000	      0.00000000	      0.00000000	      0.00000000	      0.00000000	    261.71635445	   1312.38405375	     -4.40242140	      2.12038425	      0.00000000	      0.99563465	     -0.00000000	      2.53757826	     -0.00000000
     22.50700000	      0.00000000	      0.00000000	      0.00000000	      0.00000000	      0.00000000	      0.00000000	      0.00000000	      0.00000000	      0.00000000	    265.07171581	   1290.26507490	     -5.75037590	      2.11621571	      0.00000000	      0.99575970	      0.00000000	      2.46384665	     -0.00000000
     22.50800000	      0.00000000	      0.00000000	      0.00000000	      0.00000000	      0.00000000	      0.00000000	      0.00000000	      0.00000000	      0.00000000	    267.80371063	   1267.46140558	     -7.00846818	      2.11209341	      0.00000000	      0.99588939	      0.00000000	      2.39529891	     -0.00000000
     22.50900000	      0.00000000	      0.00000000	      0.00000000	      0.00000000	      0.00000000	      0.00000000	      0.00000000	      0.00000000	      0.00000000	    270.53570544	   1244.65773626	     -8.26656045	      2.10797111	      0.00000000	      0.99601908	      0.00000000	      2.32675117	     -0.00000000
     22.51000000	      0.00000000	      0.00000000	      0.00000000	      0.00000000	      0.00000000	      0.00000000	      0.00000000	      0.00000000	      0.00000000	    273.26770026	   1221.85406694	     -9.52465272	      2.10384880	      0.00000000	      0.99614877	      0.00000000	      2.25820342	     -0.00000000
     22.51100000	      0.00000000	      0.00000000	      0.00000000	      0.00000000	      0.00000000	      0.00000000	      0.00000000	      0.00000000	      0.00000000	    275.03109230	   1198.20247792	    -10.63552599	      2.09981663	      0.00000000	      0.99628462	      0.00000000	      2.20017830	     -0.00000000
     22.51200000	      0.00000000	      0.00000000	      0.00000000	      0.00000000	      0.00000000	      0.00000000	      0.00000000	      0.00000000	      0.00000000	    276.79448434	   1174.55088891	    -11.74639926	      2.09578445	      0.00000000	      0.99642047	      0.00000000	      2.14215317	     -0.00000000
     22.51300000	      0.00000000	      0.00000000	      0.00000000	      0.00000000	      0.00000000	      0.00000000	      0.00000000	      0.00000000	      0.00000000	    278.55787638	   1150.89929989	    -12.85727253	      2.09175227	      0.00000000	      0.99655633	      0.00000000	      2.08412804	     -0.00000000
     22.51400000	      0.00000000	      0.00000000	      0.00000000	      0.00000000	      0.00000000	      0.00000000	      0.00000000	      0.00000000	      0.00000000	    279.66408886	   1126.81298506	    -13.86508421	      2.08779468	      0.00000000	      0.99669577	      0.00000000	      2.03488728	     -0.00000000
     22.51500000	      0.00000000	      0.00000000	      0.00000000	      0.00000000	      0.00000000	      0.00000000	      0.00000000	      0.00000000	      0.00000000	    280.44171154	   1102.50930732	    -14.82136509	      2.08387439	      0.00000000	      0.99683701	      0.00000000	      1.99003870	     -0.00000000
     22.51600000	      0.00000000	      0.00000000	      0.00000000	      0.00000000	      0.00000000	      0.00000000	      0.00000000	      0.00000000	      0.00000000	    281.21933423	   1078.20562958	    -15.77764598	      2.07995410	      0.00000000	      0.99697824	      0.00000000	      1.94519012	     -0.00000000
     22.51700000	      0.00000000	      0.00000000	      0.00000000	      0.00000000	      0.00000000	      0.00000000	      0.00000000	      0.00000000	      0.00000000	    281.66864265	   1053.75451467	    -16.68160867	      2.07607847	      0.00000000	      0.99712102	      0.00000000	      1.90556299	     -0.00000000
     22.51800000	      0.00000000	      0.00000000	      0.00000000	      0.00000000	      0.00000000	      0.00000000	      0.00000000	      0.00000000	      0.00000000	    281.46132254	   1029.00852544	    -17.48093498	      2.07229218	      0.00000000	      0.99726688	      0.00000000	      1.87637875	     -0.00000000
     22.51900000	      0.00000000	      0.00000000	      0.00000000	      0.00000000	      0.00000000	      0.00000000	      0.00000000	      0.00000000	      0.00000000	    281.25400243	   1004.26253621	    -18.28026128	      2.06850590	      0.00000000	      0.99741274	      0.00000000	      1.84719450	     -0.00000000
     22.52000000	      0.00000000	      0.00000000	      0.00000000	      0.00000000	      0.00000000	      0.00000000	      0.00000000	      0.00000000	      0.00000000	    281.04668231	    979.51654697	    -19.07958759	      2.06471961	      0.00000000	      0.99755860	      0.00000000	      1.81801026	     -0.00000000
     22.52100000	      0.00000000	      0.00000000	      0.00000000	      0.00000000	      0.00000000	      0.00000000	      0.00000000	      0.00000000	      0.00000000	    279.87442248	    954.54854721	    -19.72436519	      2.06108909	      0.00000000	      0.99770830	      0.00000000	      1.80672586	     -0.00000000
     22.52200000	      0.00000000	      0.00000000	      0.00000000	      0.00000000	      0.00000000	      0.00000000	      0.00000000	      0.00000000	      0.00000000	    278.70216266	    929.58054745	    -20.36914279	      2.05745857	      0.00000000	      0.99785799	      0.00000000	      1.79544147	     -0.00000000
     22.52300000	      0.00000000	      0.00000000	      0.00000000	      0.00000000	      0.00000000	      0.00000000	      0.00000000	      0.00000000	      0.00000000	    277.52990283	    904.61254769	    -21.01392040	      2.05382805	      0.00000000	      0.99800768	      0.00000000	      1.78415707	     -0.00000000
     22.52400000	      0.00000000	      0.00000000	      0.00000000	      0.00000000	      0.00000000	      0.00000000	      0.00000000	      0.00000000	      0.00000000	    275.74089254	    879.64774861	    -21.56016281	      2.05031516	      0.00000000	      0.99815937	      0.00000000	      1.78606419	     -0.00000000
     22.52500000	      0.00000000	      0.00000000	      0.00000000	      0.00000000	      0.00000000	      0.00000000	      0.00000000	      0.00000000	      0.00000000	    273.64350703	    854.68454987	    -22.05713764	      2.04686109	      0.00000000	      0.99831206	      0.00000000	      1.79456708	     -0.00000000
     22.52600000	      0.00000000	      0.00000000	      0.00000000	      0.00000000	      0.00000000	      0.00000000	      0.00000000	      0.00000000	      0.00000000	    271.54612151	    829.72135112	    -22.55411246	      2.04340701	      0.00000000	      0.99846474	      0.00000000	      1.80306996	     -0.00000000
     22.52700000	      0.00000000	      0.00000000	      0.00000000	      0.00000000	      0.00000000	      0.00000000	      0.00000000	      0.00000000	      0.00000000	    269.16022903	    804.83602802	    -23.00532001	      2.04001803	      0.00000000	      0.99861812	      0.00000000	      1.81864826	     -0.00000000
